<?xml version="1.0" encoding="UTF-8"?>
<svg id="Logo_Dark" data-name="Logo Dark" xmlns="http://www.w3.org/2000/svg" viewBox="0 0 530.21 181.75">
  <defs>
    <style>
      .cls-1 {
        fill: #ccc;
      }

      .cls-1, .cls-2, .cls-3 {
        fill-rule: evenodd;
        stroke-width: 0px;
      }

      .cls-2 {
        fill: #999;
      }

      .cls-3 {
        fill: #333;
      }
    </style>
  </defs>
  <g id="Bambu_Beacon" data-name="Bambu Beacon">
    <path class="cls-3" d="M107.63,78.48s3.21-24.33-2.27-40.56C101.41,26.23,81.74,0,81.74,0c0,0,3.3,37.16,7.74,49.23,6.76,18.38,18.15,29.25,18.15,29.25ZM74.71,123.23s2.4,7.81,2.4,15.94-2.4,16.41-2.4,16.41l36.83-18.3v-38.78s-11.41,9.59-24.68,16.66c-9.18,4.89-12.15,8.06-12.15,8.06ZM74.71,180.23h36.83v-35.15l-36.83,18.31v16.84ZM49.93,181.75s9.88-3.54,12.99-5.97c4.32-3.37,7.75-10.44,7.75-10.44,0,0-4.96.9-10,4.62-3.31,2.44-10.74,11.79-10.74,11.79ZM118.76,29.92v12.07l39.24,9.6s-2.4-.53-2.4-15.89c0-6.82.42-9.94.91-11.27l-37.75,5.49ZM103.42,95.1s-40.52-3.13-55.37.52c-20.63,5.07-43.94,24.6-43.94,24.6,0,0,30.08,1.8,53.8-3.36,15.58-3.39,45.51-21.77,45.51-21.77ZM40.85,73.45c27.69,15.85,63.74,13.86,63.74,13.86,0,0-23.86-30.33-47.86-45.03C39.46,31.69,0,28.65,0,28.65,0,28.65,22.66,63.04,40.85,73.45ZM50.37,135.96s2.79,9.32,7.4,14.31c3.32,3.59,14.7,9.89,14.7,9.89,0,0-4.76-10.18-8.32-13.83-5.43-5.56-13.78-10.38-13.78-10.38ZM33.14,159.7s11.08,6.14,17.56,6.35c9,.3,20.72-3.6,20.72-3.6,0,0-9.28-6.88-19.47-7.53-6.69-.42-18.81,4.77-18.81,4.77ZM156.5,24.43l1.49-.22s-.81-1.63-1.49.22ZM381.56,138.33h36.12v-12.48h-36.79c-3.27,0-6.1,1.17-8.49,3.51-2.39,2.34-3.58,5.11-3.58,8.32v23.66c0,3.21,1.19,5.98,3.58,8.32,2.39,2.34,5.21,3.51,8.49,3.51h36.87v-12.48h-36.21v-22.36ZM462.71,125.85h-24.8c-3.27,0-6.1,1.17-8.49,3.51-2.39,2.34-3.58,5.11-3.58,8.32v23.66c0,3.21,1.19,5.98,3.58,8.32,2.39,2.34,5.21,3.51,8.49,3.51h24.8c3.33,0,6.17-1.17,8.53-3.51,2.36-2.34,3.54-5.11,3.54-8.32v-23.66c0-3.21-1.18-5.98-3.54-8.32-2.36-2.34-5.2-3.51-8.53-3.51ZM462.04,160.69h-23.47v-22.36h23.47v22.36ZM436.28,97.67c2.36-2.34,3.54-5.11,3.54-8.32v-23.66c0-3.21-1.18-5.98-3.54-8.32-2.36-2.34-5.2-3.51-8.53-3.51h-24.14v-15.5h-12.73v62.83h36.87c3.33,0,6.17-1.17,8.53-3.51ZM427.09,88.69h-23.47v-22.36h23.47v22.36ZM526.67,129.36c-2.36-2.34-5.2-3.51-8.53-3.51h-36.87v47.33h12.73v-34.84h23.47v34.84h12.73v-35.5c0-3.21-1.18-5.98-3.54-8.32ZM457.55,101.18h24.8c3.33,0,6.17-1.17,8.53-3.51,2.36-2.34,3.54-5.11,3.54-8.32v-35.5h-12.73v34.84h-23.47v-34.84h-12.73v35.5c0,3.21,1.18,5.98,3.54,8.32,2.36,2.34,5.2,3.51,8.53,3.51ZM293.25,125.85h-24.8c-3.27,0-6.1,1.17-8.49,3.51-2.39,2.34-3.58,5.11-3.58,8.32v23.66c0,3.21,1.19,5.98,3.58,8.32,2.39,2.34,5.21,3.51,8.49,3.51h36.87v-12.48h-36.21v-4.9h36.21v-18.12c0-3.21-1.18-5.98-3.54-8.32-2.36-2.34-5.2-3.51-8.53-3.51ZM292.58,144.86h-23.47v-6.53h23.47v6.53ZM350.93,125.85h-36.87v12.48h36.21v4.9h-36.21v18.12c0,3.21,1.18,5.98,3.54,8.32,2.36,2.34,5.2,3.51,8.53,3.51h36.87v-35.5c0-3.21-1.18-5.98-3.54-8.32-2.36-2.34-5.2-3.51-8.53-3.51ZM350.26,160.69h-23.47v-6.53h23.47v6.53ZM245.39,65.52v-11.02c0-3.32-1.21-6.16-3.62-8.53s-5.31-3.55-8.7-3.55h-45.28v58.75h47.53c3.44,0,6.37-1.18,8.78-3.55,2.41-2.37,3.62-5.21,3.62-8.53v-12.16c0-2.72-.97-5.28-2.91-7.67.39-.98.58-2.23.58-3.75ZM200.7,55.16h31.63v9.79h-31.63v-9.79ZM234.65,88.45h-33.96v-10.77h33.96v10.77ZM245.39,137.52v-11.02c0-3.32-1.21-6.16-3.62-8.53s-5.31-3.55-8.7-3.55h-45.28v58.75h47.53c3.44,0,6.37-1.18,8.78-3.55,2.41-2.37,3.62-5.21,3.62-8.53v-12.16c0-2.72-.97-5.28-2.91-7.67.39-.98.58-2.23.58-3.75ZM200.7,127.16h31.63v9.79h-31.63v-9.79ZM234.65,160.45h-33.96v-10.77h33.96v10.77ZM293.33,53.85h-36.87v12.48h36.21v4.9h-36.21v18.12c0,3.21,1.18,5.98,3.54,8.32,2.36,2.34,5.2,3.51,8.53,3.51h36.87v-35.5c0-3.21-1.18-5.98-3.54-8.32-2.36-2.34-5.2-3.51-8.53-3.51ZM292.67,88.69h-23.47v-6.53h23.47v6.53ZM324.71,66.33h15.98v34.84h12.82v-34.84h15.98v34.84h12.65v-35.5c0-3.21-1.18-5.98-3.54-8.32-2.36-2.34-5.2-3.51-8.53-3.51h-58.1v47.33h12.73v-34.84Z"/>
  </g>
  <g id="Green">
    <path class="cls-3" d="M157.99,140.85l-39.24-18.3v57.67h39.24s-1.8-9.26-1.8-18.79c0-10.13,1.8-20.58,1.8-20.58Z"/>
  </g>
  <g id="Yellow">
    <path class="cls-1" d="M157.99,85.91l-39.24,7.2v21.64l39.24,18.31s-1.5-15.54-2.16-26.51c-.73-12.2,2.16-20.64,2.16-20.64Z"/>
  </g>
  <g id="Red">
    <path class="cls-2" d="M157.99,80.26s-2.16-8.76-2.16-17.65c0-5.02.51-6.02.83-6.15l-37.9-8.94s2.4,3.81,2.4,15.18c0,12.14-2.4,24.7-2.4,24.7l39.24-7.13ZM156.66,56.45l.25.06s-.11-.12-.25-.06Z"/>
  </g>
</svg>