<?xml version="1.0" encoding="UTF-8"?>
<svg id="Logo_Dark" data-name="Logo Dark" xmlns="http://www.w3.org/2000/svg" viewBox="0 0 157.99 181.75">
  <defs>
    <style>
      .cls-1 {
        fill: #ccc;
      }

      .cls-1, .cls-2, .cls-3 {
        fill-rule: evenodd;
        stroke-width: 0px;
      }

      .cls-2 {
        fill: #999;
      }

      .cls-3 {
        fill: #333;
      }
    </style>
  </defs>
  <g id="Bambu_Beacon" data-name="Bambu Beacon">
    <path class="cls-3" d="M103.42,95.1s-40.52-3.13-55.37.52c-20.63,5.07-43.94,24.6-43.94,24.6,0,0,30.08,1.8,53.8-3.36,15.58-3.39,45.51-21.77,45.51-21.77ZM49.93,181.75s9.88-3.54,12.99-5.97c4.32-3.37,7.75-10.44,7.75-10.44,0,0-4.96.9-10,4.62-3.31,2.44-10.74,11.79-10.74,11.79ZM33.14,159.7s11.08,6.14,17.56,6.35c9,.3,20.72-3.6,20.72-3.6,0,0-9.28-6.88-19.47-7.53-6.69-.42-18.81,4.77-18.81,4.77ZM155.59,35.7c0-6.82.42-9.94.91-11.27l-37.75,5.49v12.07l39.24,9.6s-2.4-.53-2.4-15.89ZM107.63,78.48s3.21-24.33-2.27-40.56C101.41,26.23,81.74,0,81.74,0c0,0,3.3,37.16,7.74,49.23,6.76,18.38,18.15,29.25,18.15,29.25ZM40.85,73.45c27.69,15.85,63.74,13.86,63.74,13.86,0,0-23.86-30.33-47.86-45.03C39.46,31.69,0,28.65,0,28.65,0,28.65,22.66,63.04,40.85,73.45ZM156.5,24.43l1.49-.22s-.81-1.63-1.49.22ZM74.71,123.23s2.4,7.81,2.4,15.94-2.4,16.41-2.4,16.41l36.83-18.3v-38.78s-11.41,9.59-24.68,16.66c-9.18,4.89-12.15,8.06-12.15,8.06ZM50.37,135.96s2.79,9.32,7.4,14.31c3.32,3.59,14.7,9.89,14.7,9.89,0,0-4.76-10.18-8.32-13.83-5.43-5.56-13.78-10.38-13.78-10.38ZM74.71,180.23h36.83v-35.15l-36.83,18.31v16.84Z"/>
  </g>
  <g id="Green">
    <path class="cls-3" d="M157.99,140.85l-39.24-18.3v57.67h39.24s-1.8-9.26-1.8-18.79c0-10.13,1.8-20.58,1.8-20.58Z"/>
  </g>
  <g id="Yellow">
    <path class="cls-1" d="M157.99,85.91l-39.24,7.2v21.64l39.24,18.31s-1.5-15.54-2.16-26.51c-.73-12.2,2.16-20.64,2.16-20.64Z"/>
  </g>
  <g id="Red">
    <path class="cls-2" d="M156.66,56.45l.25.06s-.11-.12-.25-.06ZM157.99,80.26s-2.16-8.76-2.16-17.65c0-5.02.51-6.02.83-6.15l-37.9-8.94s2.4,3.81,2.4,15.18c0,12.14-2.4,24.7-2.4,24.7l39.24-7.13Z"/>
  </g>
</svg>